<?xml version="1.0" encoding="utf-8"?>
<!-- Generator: Adobe Illustrator 16.0.0, SVG Export Plug-In . SVG Version: 6.00 Build 0)  -->
<!DOCTYPE svg PUBLIC "-//W3C//DTD SVG 1.1//EN" "http://www.w3.org/Graphics/SVG/1.1/DTD/svg11.dtd">
<svg version="1.1" id="Layer_1" xmlns="http://www.w3.org/2000/svg" xmlns:xlink="http://www.w3.org/1999/xlink" x="0px" y="0px"
	 width="123.979px" height="36.647px" viewBox="0 0 123.979 36.647" enable-background="new 0 0 123.979 36.647"
	 xml:space="preserve">
<g>
	<g>
		<g>
			<path fill-rule="evenodd" clip-rule="evenodd" fill="#FFFFFF" d="M31.421,5.015c0.302-0.177,0.632-0.372,0.953-0.561
				c0.22,0.103,0.421,0.202,0.625,0.288c0.08,0.032,0.191,0.076,0.255,0.047c0.322-0.152,0.623,0.022,0.934,0.031
				c0.372,0.009,0.713,0.129,1.055,0.268c0.156,0.065,0.276,0.15,0.358,0.296c0.214,0.376,0.458,0.739,0.634,1.133
				c0.203,0.455,0.347,0.937,0.517,1.408c0.023,0.062,0.051,0.124,0.086,0.206c0.285-0.061,0.566-0.12,0.88-0.187
				c0.019,0.12,0.032,0.195,0.044,0.272c0.042,0.009,0.085,0.034,0.125,0.027c0.093-0.019,0.198-0.035,0.201,0.09
				c0.013,0.329-0.048,0.614-0.387,0.797c-0.294,0.158-0.455,0.446-0.42,0.788c0.047,0.476,0.009,0.956,0.112,1.432
				c0.068,0.308,0.051,0.636,0.059,0.955c0.004,0.205-0.038,0.412-0.023,0.615c0.059,0.743-0.104,1.454-0.288,2.161
				c-0.055,0.219-0.148,0.432-0.259,0.63c-0.37,0.653-0.746,1.312-1.264,1.856c-0.518,0.544-1.096,1.033-1.915,1.236
				c-0.174-0.079-0.371-0.271-0.641-0.204c-0.657-0.146-1.248-0.428-1.759-0.863c-0.083-0.07-0.152-0.179-0.184-0.283
				c-0.058-0.183-0.159-0.323-0.285-0.461c-0.09-0.098-0.151-0.227-0.205-0.351c-0.089-0.208-0.165-0.417-0.286-0.616
				c-0.096-0.158-0.204-0.362-0.071-0.574c0.02-0.034,0.019-0.091,0.011-0.134c-0.064-0.451-0.076-0.92-0.213-1.348
				c-0.199-0.622-0.208-1.259-0.271-1.893c-0.049-0.513-0.058-1.035-0.051-1.554c0.006-0.75,0.08-1.489,0.3-2.221
				c0.171-0.57,0.325-1.136,0.628-1.651c0.102-0.173,0.209-0.346,0.29-0.528C31.124,5.77,31.261,5.41,31.421,5.015z M35.296,10.241
				c-0.171,0-0.309-0.024-0.436,0.005c-0.316,0.073-0.638,0.091-0.936-0.013c-0.668-0.232-1.313-0.52-1.816-1.044
				c-0.133-0.139-0.267-0.278-0.464-0.483c-0.133,0.715-0.299,1.35-0.263,2.018c0.018,0.34,0.102,0.691,0.047,1.019
				c-0.103,0.606,0.153,1.173,0.113,1.764c0.235,0.64,0.181,1.357,0.544,1.959c0.022,0.358,0.147,0.617,0.558,0.648
				c0.078,0.008,0.143,0.12,0.225,0.146c0.125,0.04,0.267,0.078,0.392,0.058c0.507-0.079,0.899-0.403,1.133-0.809
				c0.419-0.724,0.862-1.46,0.856-2.349c0-0.045,0.005-0.09,0.013-0.136C35.393,12.259,35.41,11.148,35.296,10.241z M32.963,7.047
				c0.056,0.317,0.145,0.577,0.375,0.797c0.212,0.206,0.396,0.435,0.703,0.495c0.206,0.267,0.458,0.234,0.753,0.104
				c-0.005-0.1,0.013-0.218-0.022-0.316c-0.129-0.363-0.261-0.727-0.424-1.074c-0.085-0.18-0.229-0.336-0.367-0.486
				c-0.096-0.104-0.24-0.14-0.375-0.07C33.363,6.62,33.119,6.746,32.963,7.047z"/>
			<path fill-rule="evenodd" clip-rule="evenodd" fill="#FFFFFF" d="M90.817,9.693c-0.218,0.5-0.303,1.023-0.388,1.543
				c-0.037,0.225-0.06,0.438-0.212,0.624c-0.167,0.207-0.189,0.45-0.156,0.715c0.035,0.276,0.047,0.561,0.021,0.835
				c-0.061,0.643-0.151,1.277-0.231,1.942c-0.078,0-0.175,0-0.278,0c-0.03,0.035-0.089,0.071-0.096,0.116
				c-0.202,1.301-0.451,2.591-0.896,3.836c-0.056,0.157-0.104,0.318-0.168,0.473c-0.119,0.286-0.321,0.445-0.65,0.429
				c-0.163-0.008-0.331,0.022-0.494,0.047c-0.264,0.04-0.48-0.05-0.461-0.306c0.03-0.376-0.214-0.398-0.438-0.489
				c0.009-0.911,0.207-2.106,0.481-2.95c0.052-0.16,0.11-0.321,0.131-0.486c0.087-0.721,0.159-1.443,0.241-2.166
				c0.054-0.472,0.089-0.948,0.178-1.415c0.204-1.068,0.22-2.172,0.592-3.208c0.033-0.962,0.419-1.849,0.617-2.775
				c0.256-1.2,0.677-2.358,1.103-3.513c0.076-0.208,0.148-0.42,0.201-0.636c0.102-0.413,0.277-0.788,0.55-1.129
				c0.253,0.18,0.439-0.079,0.664-0.106c0.521-0.065,1.049-0.054,1.561-0.164c0.571-0.124,1.097-0.044,1.606,0.227
				c0.096,0.052,0.208,0.078,0.314,0.106c0.259,0.066,0.417,0.235,0.586,0.438c0.6,0.722,0.781,1.587,0.944,2.471
				c0.151,0.83,0.142,1.67,0.18,2.508c0.016,0.363,0.078,0.724,0.124,1.085c0.169,1.307,0.331,2.614,0.4,3.932
				c0.049,0.896,0.181,1.786,0.248,2.68c0.065,0.865,0.176,1.732,0.021,2.601c-0.005,0.027-0.019,0.053-0.028,0.082
				c-0.145,0.04-0.336,0.036-0.425,0.131c-0.159,0.166-0.349,0.174-0.535,0.19c-0.099,0.01-0.248-0.034-0.296-0.105
				c-0.203-0.297-0.485-0.551-0.625-0.868c-0.179-0.403-0.262-0.854-0.353-1.292c-0.051-0.244-0.044-0.503-0.044-0.755
				c0.001-0.617,0.022-1.235-0.147-1.838c-0.023-0.079-0.021-0.168-0.016-0.251c0.058-0.987-0.191-1.951-0.225-2.932
				c-0.002-0.051-0.037-0.103-0.058-0.158c-0.216,0.02-0.449,0-0.649,0.07c-0.807,0.284-1.647,0.297-2.484,0.354
				C91.092,9.594,90.96,9.654,90.817,9.693z M92.646,2.437c-0.054,0.246-0.09,0.491-0.162,0.727
				c-0.252,0.827-0.517,1.652-0.777,2.477c-0.025,0.078-0.094,0.167-0.075,0.232c0.121,0.438-0.076,0.818-0.186,1.218
				c-0.036,0.131-0.057,0.276,0.152,0.417c0.354-0.029,0.778-0.024,1.182-0.11c0.434-0.091,0.895,0.11,1.328-0.137
				c0.01-0.118,0.028-0.225,0.023-0.334c-0.018-0.391,0.011-0.795-0.078-1.17c-0.104-0.436,0.123-0.816,0.085-1.24
				c-0.054-0.621-0.267-1.191-0.442-1.774c-0.067-0.226-0.293-0.333-0.506-0.411C92.99,2.256,92.805,2.299,92.646,2.437z"/>
			<path fill-rule="evenodd" clip-rule="evenodd" fill="#FFFFFF" d="M21.544,7.14c0.763-0.381,1.595-0.401,2.154-0.997
				c0.219-0.003,0.33,0.113,0.404,0.275c0.034,0.074,0.032,0.172,0.077,0.237c0.108,0.155,0.337,0.269,0.259,0.486
				c-0.05,0.143-0.209,0.245-0.317,0.367c-0.577,0.665-1.256,1.188-2.079,1.517c-0.021,0.007-0.032,0.045-0.081,0.115
				c-0.015,0.258-0.019,0.566,0.068,0.861c0.13,0.436,0.118,0.875,0.131,1.321c0.028,0.909-0.145,1.784-0.359,2.648
				c-0.234,0.95-0.533,1.883-1.264,2.604c-0.198,0.196-0.335,0.448-0.526,0.654c-0.267,0.286-0.556,0.55-0.836,0.823
				c-0.601,0.104-1.174,0.38-1.794,0.351c-0.604-0.027-1.133-0.32-1.605-0.663c-0.25-0.182-0.585-0.33-0.662-0.718
				c-0.03-0.145-0.203-0.261-0.312-0.389c-0.292-0.344-0.543-0.684-0.51-1.191c0.021-0.292-0.13-0.598-0.218-0.894
				c-0.171-0.567-0.236-1.147-0.247-1.74c-0.01-0.527,0.056-1.06-0.095-1.579c-0.021-0.073,0.005-0.161,0.014-0.243
				c0.02-0.193,0.059-0.386,0.062-0.579c0.02-1.412,0.347-2.772,0.705-4.125c0.091-0.344,0.325-0.623,0.436-0.968
				c0.215-0.665,0.497-1.307,0.752-1.959c0.154-0.394,0.357-0.51,0.784-0.449c0.057,0.008,0.112,0.027,0.167,0.028
				c0.218,0.001,0.31,0.324,0.596,0.199c0.194-0.085,0.446-0.036,0.646-0.114c0.385-0.148,0.765-0.185,1.137-0.011
				c0.533,0.252,1.075,0.515,1.37,1.064c0.381,0.712,0.839,1.39,0.911,2.233C21.335,6.552,21.443,6.79,21.544,7.14z M16.422,6.963
				c-0.083,0.195-0.173,0.342-0.209,0.501c-0.128,0.569-0.245,1.143-0.355,1.718c-0.068,0.355-0.144,0.713-0.164,1.072
				c-0.028,0.503-0.006,1.009-0.007,1.513c0,0.873,0.201,1.711,0.47,2.526c0.129,0.393,0.362,0.755,0.58,1.109
				c0.082,0.132,0.246,0.224,0.388,0.306c0.293,0.168,0.524,0.141,0.751-0.113c0.223-0.25,0.388-0.558,0.632-0.783
				c0.454-0.423,0.537-1.031,0.835-1.528c0.073-0.691,0.283-1.367,0.222-2.074c-0.026-0.306-0.033-0.615-0.029-0.923
				C19.541,9.835,19.459,9.406,19.31,9C18.185,8.543,17.233,7.885,16.422,6.963z M18.323,4.981
				c-0.114,0.082-0.222,0.129-0.287,0.209c-0.231,0.292-0.188,0.548,0.149,0.733c0.182,0.101,0.306,0.23,0.406,0.406
				c0.048,0.084,0.135,0.147,0.288,0.308C18.891,5.938,18.719,5.44,18.323,4.981z"/>
			<path fill-rule="evenodd" clip-rule="evenodd" fill="#FFFFFF" d="M7.479,0.139C7.984,0.4,8.163,0.797,8.262,1.248
				C8.329,1.547,8.249,1.798,8.078,2C7.676,2.131,7.311,2.265,6.935,2.365C6.748,2.416,6.545,2.414,6.35,2.416
				C5.646,2.42,4.95,2.504,4.261,2.637C4.013,2.684,3.766,2.741,3.526,2.819c-0.165,0.054-0.29,0.175-0.317,0.358
				C3.111,3.842,3.016,4.505,2.92,5.167c0.205,0.68-0.003,1.394,0.162,2.104C3.611,7.142,4.077,6.884,4.5,6.586
				c0.309-0.219,0.595-0.28,0.939-0.212c0.053,0.01,0.111-0.005,0.167-0.009C5.994,6.568,6.14,6.891,6.075,7.354
				C5.912,7.599,5.609,7.788,5.57,8.165C5.556,8.293,5.378,8.43,5.246,8.52c-0.625,0.428-1.259,0.84-1.888,1.257
				C3.264,9.839,3.175,9.904,3.064,9.981c-0.072,0.81-0.035,1.619-0.007,2.427c0.035,0.98,0.21,1.954,0.158,2.94
				c-0.046,0.847,0.1,1.67,0.28,2.492c0.066,0.297,0.071,0.606,0.103,0.898c-0.205,0.116-0.365,0.214-0.531,0.3
				c-0.208,0.104-0.415,0.12-0.625-0.019c-0.418-0.275-0.736-0.66-1.102-0.989c-0.118-0.105-0.187-0.278-0.25-0.433
				c-0.172-0.412-0.353-0.823-0.485-1.249c-0.115-0.373-0.221-0.761-0.238-1.146c-0.038-0.841-0.095-1.68-0.236-2.503
				c-0.105-0.616-0.095-1.229-0.109-1.841c-0.024-1.04-0.028-2.079,0-3.118c0.012-0.444,0.001-0.887,0.015-1.328
				C0.048,5.94,0.139,5.469,0.21,4.996c0.066-0.441,0.197-0.879,0.219-1.321c0.043-0.87,0.558-1.569,0.813-2.359
				c0.054-0.166,0.253-0.283,0.389-0.421c0.017-0.016,0.052-0.018,0.08-0.022C2.005,0.827,2.06,0.431,2.393,0.426
				c0.251-0.004,0.502-0.048,0.75-0.091c0.192-0.034,0.384-0.082,0.571-0.142c0.217-0.067,0.428-0.05,0.653-0.046
				c0.52,0.01,1.05-0.034,1.561-0.132C6.106-0.018,6.234,0.01,6.394,0.033C6.752,0.087,7.117,0.105,7.479,0.139z"/>
			<path fill-rule="evenodd" clip-rule="evenodd" fill="#FFFFFF" d="M105.823,3.703c0.137-0.163,0.245-0.289,0.332-0.392
				c0.468-0.127,0.699,0.196,0.973,0.441c0.586-0.006,1.165,0,1.752-0.097c0.606-0.1,1.237-0.037,1.823,0.192
				c0.255,0.1,0.5,0.253,0.71,0.428c0.256,0.216,0.469,0.48,0.702,0.724c0.142,0.148,0.221,0.322,0.222,0.529
				c0.001,0.587,0.054,1.182-0.011,1.763c-0.076,0.675-0.38,1.286-0.797,1.825c-0.359,0.467-0.751,0.899-1.333,1.115
				c-0.391,0.145-0.77,0.325-1.143,0.513c-0.161,0.081-0.322,0.139-0.477,0.062c-0.251-0.127-0.499-0.024-0.739-0.014
				c-0.382,0.021-0.746,0.158-0.72,0.641c0.015,0.262-0.33,0.31-0.271,0.574c0.041,0.19,0.075,0.387,0.083,0.582
				c0.034,0.924-0.021,1.842-0.228,2.748c-0.008,0.027-0.025,0.055-0.022,0.08c0.116,0.803-0.344,1.512-0.373,2.295
				c-0.008,0.213-0.111,0.431-0.206,0.63c-0.125,0.262-0.307,0.463-0.642,0.459c-0.098-0.001-0.197,0.091-0.294,0.142
				c-0.571-0.139-0.897-0.632-1.383-0.962c-0.017-0.478-0.063-0.968,0.053-1.475c0.087-0.376,0.078-0.779,0.07-1.171
				c-0.018-0.76,0.1-1.508,0.18-2.258c0.062-0.581,0.114-1.161,0.136-1.746c0.021-0.559,0.099-1.115,0.132-1.674
				c0.043-0.7,0.072-1.401,0.095-2.102c0.009-0.256,0.038-0.496,0.135-0.737c0.071-0.178,0.105-0.379,0.114-0.571
				c0.027-0.674,0.094-1.342,0.299-1.985c0.059-0.187-0.03-0.325-0.056-0.484c-0.035-0.21,0.096-0.346,0.278-0.289
				C105.404,3.546,105.586,3.618,105.823,3.703z M107.474,5.274c-0.069,0.692-0.142,1.356-0.201,2.024
				c-0.058,0.654-0.231,1.305-0.104,1.979c0.623-0.143,1.131-0.408,1.528-0.869c0.706-0.368,0.947-1.073,1.239-1.732
				c0.111-0.252,0.162-0.534,0.211-0.808c0.048-0.276-0.129-0.503-0.405-0.531c-0.25-0.025-0.503-0.03-0.756-0.035
				C108.513,5.289,108.037,5.284,107.474,5.274z"/>
			<path fill-rule="evenodd" clip-rule="evenodd" fill="#FFFFFF" d="M60.222,14.149c0.069-0.114,0.138-0.229,0.24-0.399
				c0.243,0.317,0.396,0.645,0.653,0.824c0.307,0.215,0.376,0.543,0.543,0.816c0.132,0.216,0.285,0.403,0.441,0.597
				c0.383,0.477,0.88,0.562,1.432,0.428c0.326-0.08,0.662-0.164,0.952-0.322c0.318-0.175,0.552-0.459,0.643-0.839
				c0.227-0.947,0.145-1.895-0.048-2.827c-0.078-0.375-0.27-0.742-0.478-1.071c-0.674-1.064-1.371-2.113-2.301-2.985
				c-0.243-0.228-0.449-0.5-0.645-0.772C61.527,7.417,61.424,7.209,61.355,7c-0.113-0.345-0.206-0.698-0.275-1.054
				c-0.049-0.253-0.015-0.516,0.226-0.679c0.159-0.107,0.207-0.243,0.216-0.422c0.041-0.718,0.387-1.34,0.689-1.961
				c0.208-0.427,0.652-0.685,1.077-0.877c0.377-0.172,0.789-0.289,1.222-0.094c0.2,0.091,0.432,0.108,0.671,0.164
				c0.09,0.157,0.185,0.324,0.291,0.51c0.097-0.073,0.174-0.134,0.27-0.205c0.052,0.06,0.137,0.114,0.156,0.185
				c0.086,0.321,0.136,0.653,0.232,0.97c0.092,0.305,0.027,0.547-0.188,0.766C65.846,4.4,65.76,4.51,65.635,4.653
				c-0.239,0.022-0.514,0.048-0.759,0.073c-0.265-0.182-0.494-0.338-0.702-0.479c-0.239,0.015-0.321,0.179-0.375,0.328
				c-0.18,0.505-0.323,1.011-0.02,1.538c0.083,0.145,0.139,0.293,0.276,0.4c0.553,0.432,0.987,0.982,1.441,1.502
				c0.438,0.502,0.752,1.11,1.135,1.661c0.607,0.876,0.846,1.88,1.002,2.905c0.096,0.636,0.134,1.282,0.163,1.926
				c0.034,0.766-0.054,1.512-0.492,2.177c-0.153,0.233-0.203,0.509-0.372,0.745c-0.578,0.807-1.414,1.157-2.314,1.4
				c-0.18,0.048-0.386,0.013-0.577-0.003c-0.219-0.019-0.441-0.099-0.656-0.082c-0.803,0.064-1.466-0.269-2.109-0.685
				c-0.413-0.266-0.66-0.661-0.85-1.087c-0.216-0.483-0.402-0.98-0.401-1.529c0-0.188-0.096-0.376-0.152-0.586
				c0.16-0.215,0.122-0.532,0.362-0.722c0.006,0.026,0.007,0.057,0.021,0.076c0.008,0.012,0.039,0.009,0.06,0.011
				C60.284,14.198,60.252,14.175,60.222,14.149z"/>
			<path fill-rule="evenodd" clip-rule="evenodd" fill="#FFFFFF" d="M50.4,19.264c-0.243,0.137-0.478,0.269-0.718,0.402
				c-0.117-0.062-0.244-0.193-0.357-0.183c-0.516,0.048-0.811-0.329-1.135-0.595c-0.33-0.27-0.474-0.685-0.484-1.13
				c-0.002-0.137-0.048-0.276-0.093-0.407c-0.173-0.51-0.247-1.031-0.212-1.568c0.006-0.084,0.012-0.175-0.011-0.252
				c-0.235-0.738-0.135-1.5-0.147-2.253c-0.021-1.319,0.05-2.646-0.07-3.957c-0.154-1.683-0.087-3.362-0.155-5.044
				c-0.005-0.136,0.024-0.274,0.042-0.461c0.182,0.054,0.331,0.144,0.469,0.13c0.187-0.017,0.37-0.104,0.548-0.176
				c0.151-0.06,0.293-0.139,0.474-0.225c0.189,0.275,0.341,0.54,0.647,0.664c0.16,0.065,0.23,0.257,0.21,0.431
				c-0.05,0.444,0.161,0.748,0.487,1.003c0.352,0.277,0.676,0.602,1.06,0.823c0.897,0.515,1.799,1.253,1.975,2.236
				c0.063,0.358,0.119,0.799,0.294,1.127c0.207,0.386,0.177,0.749,0.08,1.258c0.04,0.323-0.13,0.431-0.091,0.645
				c0.073,0.405-0.05,0.993-0.196,1.37c-0.193,0.496-0.246,0.806-0.394,1.318c-0.093,0.321-0.395,0.612-0.465,0.94
				c-0.034,0.163-0.034,0.347-0.111,0.487c-0.238,0.434-0.222,0.986-0.619,1.345c-0.153,0.551-0.521,0.979-0.821,1.448
				C50.491,18.821,50.465,19.059,50.4,19.264z M50.188,15.652c0.141-0.182,0.272-0.322,0.372-0.483
				c0.311-0.496,0.593-1.011,0.919-1.497c0.322-0.48,0.311-0.997,0.239-1.53c-0.013-0.082-0.044-0.16-0.067-0.242
				c-0.223-0.806-0.293-1.628-0.316-2.462c-0.016-0.529-0.08-1.063-0.477-1.475c-0.305-0.317-0.625-0.621-0.947-0.926
				c-0.071-0.066-0.161-0.161-0.327-0.01c0.001,0.792-0.007,1.629,0.01,2.466c0.006,0.303,0.093,0.604,0.116,0.909
				c0.042,0.554,0.077,1.107,0.09,1.662c0.017,0.7-0.001,1.4,0.013,2.099C49.824,14.668,49.895,15.162,50.188,15.652z"/>
			<path fill-rule="evenodd" clip-rule="evenodd" fill="#FFFFFF" d="M122.866,17.45c0.349,0.245,0.71,0.498,1.114,0.782
				c-0.26,0.355-0.621,0.602-0.775,0.995c-0.017,0.043-0.081,0.08-0.132,0.098c-0.497,0.172-0.906,0.571-1.479,0.549
				c-0.132-0.005-0.27,0.065-0.404,0.104c-0.666,0.197-1.333,0.078-1.99-0.021c-0.605-0.092-1.655-0.453-2.178-0.79
				c-0.586-0.379-1.098-0.827-1.355-1.539c-0.264-0.735-0.348-1.441-0.179-2.21c0.095-0.43,0.058-0.881,0.187-1.322
				c0.177-0.604,0.45-1.138,0.853-1.615c0.399-0.473,0.812-0.931,1.31-1.307c0.084-0.062,0.142-0.161,0.22-0.253
				c-0.127-0.212-0.243-0.398-0.353-0.591c-0.11-0.193-0.223-0.389-0.321-0.59c-0.275-0.567-0.467-1.154-0.182-1.772
				c0.398-0.866,0.991-1.576,1.874-1.964c0.429-0.188,0.914-0.278,1.402-0.189c0.3,0.055,0.604,0.098,0.925,0.15
				c0.152,0.134,0.319,0.281,0.526,0.462c0.019,0.21,0.042,0.455,0.062,0.679c-0.369,0.387-0.781,0.485-1.25,0.411
				c-0.368-0.058-0.726-0.017-1.071,0.13c-0.573,0.242-0.924,1.021-0.669,1.532c0.059,0.116,0.166,0.246,0.281,0.29
				c0.681,0.258,1.369,0.492,2.117,0.757c0.054,0.091,0.137,0.234,0.221,0.377c0.069,0.119,0.139,0.237,0.217,0.372
				c-0.227,0.396-0.579,0.617-0.955,0.8c-0.227,0.111-0.472,0.182-0.701,0.29c-0.201,0.094-0.42,0.18-0.58,0.324
				c-0.619,0.569-1.212,1.163-1.667,1.878c-0.249,0.39-0.38,0.812-0.384,1.272c-0.001,0.112,0.031,0.227,0.018,0.336
				c-0.102,0.839,0.351,1.316,1.055,1.623c0.279,0.122,0.588,0.165,0.845,0.358c0.099,0.075,0.269,0.074,0.407,0.075
				c0.842,0.011,1.68-0.025,2.483-0.32C122.514,17.554,122.677,17.508,122.866,17.45z"/>
			<path fill-rule="evenodd" clip-rule="evenodd" fill="#FFFFFF" d="M75.734,13.531c0.837,0.133,1.659,0.182,2.443-0.248
				c0.11-0.061,0.293-0.133,0.372-0.086c0.416,0.25,0.763-0.072,1.195-0.078c0.116,0.177,0.255,0.389,0.407,0.618
				c-0.144,0.322-0.314,0.65-0.431,0.996c-0.08,0.238-0.238,0.363-0.407,0.531c-0.984,0.981-2.202,1.011-3.458,0.926
				c-0.16-0.012-0.318-0.095-0.471-0.162c-0.215-0.092-0.415-0.261-0.638-0.291c-0.612-0.085-0.883-0.532-1.201-0.973
				c-0.536-0.74-0.701-1.588-0.759-2.462c-0.048-0.735-0.042-1.476,0.183-2.194c0.129-0.415,0.23-0.837,0.353-1.252
				c0.342-1.154,1.04-2.102,1.825-2.976c0.557-0.619,1.181-1.18,1.814-1.723c0.245-0.212,0.593-0.307,0.896-0.45
				c0.451-0.214,0.925-0.367,1.327-0.695c0.213-0.173,0.536-0.211,0.871-0.332C80.361,2.848,80.698,3,80.89,3.419
				c0.129,0.286,0.442,0.486,0.679,0.732c0.012,0.573-0.168,1.055-0.539,1.521c-0.556-0.055-1.021-0.258-1.316-0.7
				c-0.561-0.096-0.921,0.151-1.315,0.445c-0.836,0.62-1.622,1.268-2.215,2.139c-0.231,0.342-0.421,0.701-0.51,1.081
				c-0.229,0.977-0.388,1.969-0.582,2.953c-0.108,0.557-0.024,1.062,0.361,1.503C75.56,13.216,75.633,13.37,75.734,13.531z"/>
		</g>
		<g>
			<path fill-rule="evenodd" clip-rule="evenodd" fill="#FFFFFF" d="M95.609,34.618c0.665-0.874,1.252-1.647,1.846-2.427
				c-0.089-0.305-0.284-0.515-0.475-0.729c-0.477-0.536-0.5-1.326-0.068-1.899c0.32-0.426,0.742-0.691,1.246-0.842
				c0.061-0.018,0.631,0.055,0.694,0.103c0.182,0.141,0.387,0.205,0.612,0.238c0.229,0.034,0.338,0.203,0.373,0.415
				c0.047,0.291-0.029,0.572-0.082,0.856c-0.07,0.37-0.13,0.735-0.387,1.043c-0.092,0.109-0.109,0.282-0.151,0.4
				c0.145,0.354,0.468,0.435,0.714,0.574c0.065,0.168-0.106,0.197-0.13,0.29c-0.127,0.477-0.48,0.514-0.88,0.472
				c-0.067-0.006-0.133-0.015-0.199-0.023c-0.168-0.024-0.312,0.022-0.412,0.161c-0.431,0.59-0.964,1.092-1.359,1.721
				c-0.302,0.479-0.713,0.904-1.189,1.239c-0.241,0.172-0.529,0.211-0.815,0.295c-0.114-0.123-0.199-0.267-0.325-0.343
				c-0.402-0.243-0.458-0.636-0.48-1.038c-0.034-0.619-0.021-1.242-0.079-1.859c-0.045-0.484-0.169-0.959-0.251-1.439
				c-0.052-0.306-0.098-0.613-0.13-0.921c-0.041-0.396-0.073-0.79-0.233-1.163c-0.042-0.099-0.041-0.216-0.048-0.326
				c-0.007-0.116,0.096-0.224,0.201-0.216c0.285,0.021,0.57,0.039,0.852,0.076c0.08,0.012,0.165,0.072,0.227,0.132
				c0.231,0.221,0.381,0.472,0.398,0.813c0.026,0.53,0.091,1.062,0.145,1.592c0.017,0.175,0.028,0.354,0.08,0.521
				c0.145,0.47,0.189,0.949,0.196,1.437C95.503,34.012,95.56,34.251,95.609,34.618z M98.036,31c0.138-0.298,0.225-0.476,0.305-0.657
				c0.056-0.129,0.025-0.289-0.049-0.281c-0.083,0.007-0.176,0.03-0.241,0.079c-0.108,0.082-0.18,0.199-0.146,0.347
				C97.934,30.617,97.969,30.744,98.036,31z"/>
			<path fill-rule="evenodd" clip-rule="evenodd" fill="#FFFFFF" d="M107.321,33.662c0.077,0.52,0.334,0.752,0.73,0.816
				c0.464,0.074,0.911,0.247,1.403,0.154c0.447-0.085,0.85,0.159,1.252,0.236c0.122,0.263-0.157,0.287-0.194,0.447
				c0.08,0.105,0.163,0.215,0.267,0.35c-0.308,0.19-0.705,0.271-0.817,0.71c-0.259,0.013-0.51,0.015-0.758,0.037
				c-0.276,0.025-0.551,0.074-0.828,0.104c-0.192,0.019-0.4,0.07-0.579,0.024c-0.572-0.149-1.128-0.343-1.519-0.836
				c-0.296-0.371-0.57-0.74-0.729-1.208c-0.153-0.448-0.322-0.882-0.357-1.36c-0.011-0.133-0.084-0.262-0.131-0.396
				c0.271-0.667,0.579-1.328,0.805-2.015c0.189-0.575,0.523-1.049,0.882-1.511c0.544-0.698,1.263-0.971,2.145-0.792
				c0.191,0.039,0.388,0.055,0.584,0.068c0.65,0.045,1.09,0.467,1.427,0.935c0.233,0.321,0.317,0.771,0.394,1.177
				c0.049,0.263,0.117,0.57-0.052,0.821c-0.275,0.406-0.397,0.898-0.907,1.161c-0.83,0.428-1.682,0.762-2.592,0.959
				C107.618,33.571,107.489,33.615,107.321,33.662z M107.405,31.649c0.309-0.138,0.476-0.26,0.654-0.28
				c0.378-0.043,0.665-0.264,0.981-0.426c0.091-0.047,0.16-0.149,0.223-0.237c0.098-0.138,0.031-0.354-0.12-0.423
				c-0.394-0.182-0.789-0.135-1.07,0.151c-0.175,0.177-0.348,0.363-0.475,0.572C107.506,31.16,107.489,31.356,107.405,31.649z"/>
			<path fill-rule="evenodd" clip-rule="evenodd" fill="#FFFFFF" d="M57.746,33.662c0.077,0.52,0.334,0.752,0.73,0.816
				c0.464,0.074,0.911,0.247,1.403,0.154c0.448-0.085,0.849,0.159,1.252,0.236c0.121,0.263-0.157,0.287-0.194,0.447
				c0.08,0.105,0.163,0.215,0.267,0.35c-0.309,0.19-0.705,0.271-0.817,0.71c-0.259,0.013-0.509,0.015-0.758,0.037
				c-0.276,0.025-0.551,0.074-0.827,0.104c-0.193,0.019-0.4,0.07-0.579,0.024c-0.572-0.149-1.127-0.343-1.519-0.834
				c-0.296-0.373-0.569-0.742-0.728-1.21c-0.153-0.448-0.322-0.882-0.359-1.359c-0.01-0.134-0.084-0.263-0.131-0.397
				c0.271-0.667,0.579-1.328,0.806-2.015c0.189-0.575,0.523-1.049,0.883-1.509c0.544-0.7,1.264-0.973,2.144-0.794
				c0.192,0.039,0.39,0.055,0.584,0.068c0.65,0.045,1.09,0.465,1.427,0.935c0.232,0.321,0.317,0.771,0.393,1.177
				c0.05,0.263,0.118,0.57-0.051,0.821c-0.275,0.406-0.397,0.898-0.907,1.161c-0.83,0.428-1.682,0.762-2.592,0.959
				C58.042,33.571,57.914,33.615,57.746,33.662z M57.831,31.649c0.308-0.138,0.475-0.26,0.654-0.28
				c0.377-0.043,0.665-0.264,0.98-0.426c0.091-0.047,0.16-0.149,0.224-0.237c0.096-0.138,0.03-0.354-0.12-0.423
				c-0.394-0.182-0.789-0.135-1.071,0.151c-0.174,0.177-0.347,0.363-0.475,0.572C57.931,31.16,57.914,31.356,57.831,31.649z"/>
			<path fill-rule="evenodd" clip-rule="evenodd" fill="#FFFFFF" d="M49.747,26.788c0.001,0.028-0.008,0.063,0.005,0.082
				c0.428,0.591,0.317,1.225,0.128,1.848c-0.13,0.427-0.316,0.837-0.482,1.253c-0.132,0.333-0.309,0.645-0.354,1.019
				c-0.031,0.271-0.168,0.538-0.304,0.778c-0.33,0.587-0.687,1.158-1.033,1.734c-0.101,0.168-0.203,0.333-0.298,0.488
				c0.056,0.311,0.271,0.437,0.506,0.541c0.126,0.057,0.27,0.086,0.38,0.162c0.111,0.078,0.21,0.198,0.169,0.354
				c-0.085,0.317-0.035,0.688-0.374,0.904c-0.06,0.038-0.087,0.129-0.129,0.192c-0.255-0.078-0.494-0.152-0.736-0.228
				c-0.098,0.085-0.181,0.155-0.268,0.229c-0.473-0.109-0.717-0.504-1.042-0.865c-0.396,0.178-0.801,0.361-1.271,0.573
				c-0.041-0.017-0.139-0.059-0.238-0.099c-0.104-0.042-0.225-0.083-0.163-0.225c0.019-0.039,0.14-0.023,0.207-0.052
				c0.076-0.031,0.141-0.082,0.286-0.168c-0.251-0.071-0.398-0.078-0.504-0.149c-0.179-0.121-0.331-0.28-0.519-0.445
				c0.492-0.358,0.963-0.697,1.449-1.05c0.018-0.169,0.05-0.333,0.048-0.498c-0.011-0.99,0.234-1.936,0.483-2.885
				c0.214-0.812,0.486-1.605,0.85-2.363c0.312-0.65,0.768-1.152,1.486-1.385c0.28-0.09,0.542-0.114,0.822-0.029
				c0.188,0.057,0.383,0.086,0.573,0.128l-0.015-0.021c0.067,0.165,0.213,0.179,0.361,0.189L49.747,26.788z M48.403,28.479
				c0.075-0.06,0.164-0.113,0.053-0.275c-0.014,0.124-0.024,0.21-0.033,0.293c-0.309,0.278-0.427,0.56-0.438,1.082
				C48.227,29.234,48.374,28.88,48.403,28.479z"/>
			<path fill-rule="evenodd" clip-rule="evenodd" fill="#FFFFFF" d="M23.622,33.886c-0.137-0.976-0.004-1.944,0.005-2.988
				c-0.061-0.024-0.209-0.073-0.348-0.14c-0.173-0.084-0.237-0.232-0.188-0.416c0.099-0.389,0.258-0.732,0.634-0.944
				c0.339-0.191,0.64-0.45,1.032-0.55c0.132-0.032,0.295-0.083,0.367-0.183c0.272-0.38,0.685-0.304,1.053-0.347
				c0.444-0.049,0.894-0.049,1.339-0.081c0.877-0.061,1.522,0.254,1.869,1.099c0.106,0.258,0.257,0.492,0.172,0.796
				c-0.027,0.097,0.004,0.22,0.034,0.323c0.205,0.732,0.26,1.481,0.31,2.237c0.053,0.812-0.365,1.39-0.895,1.903
				c-0.252,0.244-0.538,0.494-0.921,0.547c-0.478,0.359-1.077,0.419-1.611,0.639c-0.073,0.029-0.165,0.035-0.245,0.026
				c-0.65-0.072-1.292-0.202-1.671-0.801c-0.27-0.428-0.577-0.809-0.953-1.14L23.622,33.886z M26.867,34.328
				c0.41-0.316,0.698-0.589,1.031-0.787c0.373-0.222,0.555-0.524,0.625-0.936c0.033-0.193,0.067-0.367,0.021-0.571
				c-0.102-0.463-0.163-0.937-0.235-1.405c-0.047-0.307-0.232-0.498-0.494-0.629c-0.761-0.387-1.618-0.11-1.975,0.68
				c-0.239,0.53-0.449,1.084-0.597,1.646c-0.159,0.604-0.177,1.221,0.27,1.749c0.07,0.084,0.135,0.171,0.201,0.254
				C26.126,34.328,26.514,34.328,26.867,34.328z"/>
			<path fill-rule="evenodd" clip-rule="evenodd" fill="#FFFFFF" d="M37.278,35.214c-0.099-0.093-0.197-0.184-0.331-0.308
				c-0.228,0.172-0.503,0.323-0.701,0.543c-0.225,0.248-0.543,0.271-0.799,0.433c-0.054,0.034-0.193,0.016-0.236-0.031
				c-0.167-0.185-0.371-0.367-0.451-0.591c-0.115-0.318-0.111-0.659,0.224-0.905c0.308-0.227,0.593-0.483,0.89-0.726
				c0.166-0.136,0.238-0.304,0.203-0.52c-0.069-0.413-0.098-0.84-0.213-1.24c-0.096-0.339-0.083-0.659-0.033-0.992
				c0.035-0.221,0.039-0.445,0.075-0.664c0.093-0.584,0.245-1.146,0.581-1.647c0.203-0.302,0.359-0.633,0.551-0.944
				c0.288-0.472,0.743-0.748,1.238-1.015c0.178,0.055,0.36,0.132,0.549,0.16c0.188,0.028,0.383,0.007,0.595,0.007
				c0.303,0.685,0.51,1.323,0.272,2.051c-0.277,0.849-0.505,1.714-0.765,2.567c-0.057,0.186-0.162,0.356-0.241,0.536
				c-0.194,0.433-0.386,0.867-0.562,1.264c0.112,0.293,0.19,0.534,0.296,0.76c0.073,0.153,0.196,0.296,0.389,0.271
				c0.504-0.068,0.734,0.176,0.77,0.665c-0.526,0.644-0.526,0.644-1.444,0.819c-0.158-0.098-0.344-0.211-0.529-0.326l0.019,0.021
				c-0.1-0.344-0.109-0.348-0.363-0.173L37.278,35.214z"/>
			<path fill-rule="evenodd" clip-rule="evenodd" fill="#FFFFFF" d="M17.623,34.489c-0.182,0.124-0.349,0.194-0.453,0.318
				c-0.263,0.319-0.575,0.521-0.993,0.54c-0.536,0.352-1.082,0.167-1.621,0.021c-0.241-0.063-0.471-0.175-0.708-0.255
				c-0.726-0.244-1.25-0.951-1.221-1.72c0.016-0.445,0.051-0.888,0.149-1.331c0.188-0.846,0.414-1.68,0.762-2.473
				c0.254-0.582,0.714-0.986,1.243-1.327c0.529-0.342,1.145-0.437,1.728-0.613c0.263-0.079,0.562-0.036,0.789,0.18
				c0.282,0.27,0.673,0.408,0.895,0.749c0.104,0.161,0.196,0.329,0.275,0.462c-0.031,0.27-0.247,0.251-0.374,0.345
				c-0.109,0.081-0.202,0.186-0.296,0.274c-0.528-0.134-1.045-0.232-1.583-0.167c-0.21,0.025-0.377,0.108-0.499,0.272
				c-0.167,0.225-0.39,0.437-0.472,0.69c-0.248,0.783-0.725,1.527-0.479,2.461c0.304,0.165,0.636,0.321,1.053,0.156
				c0.348-0.139,0.722-0.089,1.082-0.036c0.364,0.054,0.721,0.155,0.823,0.649c-0.022,0.038-0.062,0.148-0.136,0.227
				C17.409,34.1,17.523,34.268,17.623,34.489z"/>
			<path fill-rule="evenodd" clip-rule="evenodd" fill="#FFFFFF" d="M79.759,27.419c0.057,0.557-0.014,1.042-0.2,1.526
				c-0.136,0.353-0.311,0.716-0.224,1.165c0.344,0.031,0.671,0.062,1.02,0.094c0.055,0.205-0.145,0.394-0.04,0.624
				c0.066,0.144-0.276,0.633-0.439,0.718c-0.199,0.104-0.397,0.21-0.605,0.294c-0.314,0.123-0.43,0.378-0.389,0.668
				c0.04,0.288,0.008,0.549-0.049,0.828c-0.08,0.395,0.05,0.779,0.172,1.152c0.107,0.324,0.375,0.479,0.696,0.525
				c0.273,0.041,0.553,0.043,0.915,0.068c-0.166,0.166-0.328,0.258-0.376,0.392c-0.05,0.139,0.011,0.315,0.022,0.459
				c-0.521,0.489-1.165,0.521-1.826,0.597c-0.79-0.372-1.106-1.128-1.359-1.901c-0.154-0.474-0.246-0.979-0.163-1.493
				c0.018-0.109-0.004-0.226,0.009-0.338c0.061-0.55-0.018-1.049-0.419-1.479c-0.119-0.129-0.134-0.354-0.207-0.562
				c0.307-0.083,0.572-0.171,0.843-0.224c0.228-0.042,0.382-0.18,0.397-0.378c0.036-0.454,0.258-0.849,0.357-1.278
				c0.094-0.408,0.142-0.825,0.224-1.236c0.031-0.16,0.078-0.326,0.157-0.467c0.148-0.26,0.399-0.316,0.646-0.164
				c0.167,0.103,0.314,0.239,0.483,0.337C79.492,27.394,79.611,27.392,79.759,27.419z"/>
			<path fill-rule="evenodd" clip-rule="evenodd" fill="#FFFFFF" d="M68.84,34.403c0.171,0.146,0.335,0.298,0.513,0.431
				c0.109,0.08,0.242,0.187,0.363,0.186c0.44-0.004,0.709,0.251,0.958,0.561c0.031,0.19-0.097,0.298-0.206,0.431
				c-0.179,0.22-0.536,0.191-0.659,0.493c-0.018,0.045-0.146,0.052-0.227,0.065c-0.395,0.065-0.776,0.015-1.13-0.159
				c-0.104,0.09-0.185,0.156-0.28,0.237c-0.87-0.492-1.221-1.3-1.219-2.237c0.003-1.271,0.444-2.392,1.324-3.341
				c0.366-0.396,0.804-0.682,1.237-0.974c0.411-0.279,1.136-0.15,1.465,0.217c0.112,0.123,0.204,0.266,0.296,0.389
				c-0.209,1.147-0.355,1.304-1.268,1.328C69.335,32.659,68.775,33.365,68.84,34.403z"/>
			<path fill-rule="evenodd" clip-rule="evenodd" fill="#FFFFFF" d="M88.003,29.842c0.102,0.566,0.086,1.096,0.109,1.623
				c0.026,0.614-0.031,1.227-0.031,1.839c0,0.313,0.025,0.61,0.259,0.845c-0.32,0.345-0.43,0.854-1.01,0.886
				c-0.169-0.093-0.362-0.202-0.567-0.317c-0.41-0.805-0.655-1.651-0.571-2.581c0.042-0.442,0-0.888,0.119-1.335
				c0.066-0.245-0.062-0.54-0.107-0.841c0.123-0.087,0.245-0.214,0.394-0.265c0.148-0.049,0.329-0.053,0.482-0.018
				c0.158,0.037,0.292,0.178,0.45,0.212C87.67,29.919,87.828,29.864,88.003,29.842z"/>
			<path fill-rule="evenodd" clip-rule="evenodd" fill="#FFFFFF" d="M87.124,26.304c0.169,0.532,0.165,0.531,0.018,1.076
				c-0.076,0.28-0.134,0.312-0.375,0.343c-0.354,0.047-0.622-0.158-0.916-0.282c-0.061-0.026-0.094-0.129-0.131-0.2
				c-0.096-0.193-0.186-0.389-0.276-0.578c0.162-0.33,0.423-0.471,0.758-0.402C86.499,26.32,86.797,26.328,87.124,26.304z"/>
			<path fill-rule="evenodd" clip-rule="evenodd" fill="#FFFFFF" d="M23.453,33.869c-0.279-0.092-0.187-0.258-0.041-0.504
				c0.011,0.224,0.019,0.37,0.027,0.517L23.453,33.869z"/>
			<path fill-rule="evenodd" clip-rule="evenodd" fill="#FFFFFF" d="M23.604,33.867c-0.004,0.054-0.004,0.106-0.012,0.159
				c-0.004,0.024-0.025,0.046-0.039,0.068c-0.033-0.022-0.082-0.039-0.093-0.069c-0.017-0.048-0.007-0.104-0.008-0.156l-0.014,0.013
				c0.061,0.002,0.122,0.001,0.183,0.004L23.604,33.867z"/>
			<path fill-rule="evenodd" clip-rule="evenodd" fill="#FFFFFF" d="M49.422,26.635c0.202-0.199,0.21-0.199,0.328-0.007l0.014-0.014
				c-0.119,0-0.238,0-0.357,0L49.422,26.635z"/>
			<path fill-rule="evenodd" clip-rule="evenodd" fill="#FFFFFF" d="M49.75,26.628c0.184,0.057,0.072,0.107-0.003,0.16l0.021,0.016
				c0-0.063-0.002-0.126-0.004-0.189L49.75,26.628z"/>
		</g>
	</g>
</g>
</svg>
